<svg width="74" height="16" viewBox="0 0 74 16" fill="none" xmlns="http://www.w3.org/2000/svg">
<path d="M4.87199 14.12C4.23999 14.12 3.65599 14.016 3.11999 13.808C2.59199 13.592 2.13199 13.292 1.73999 12.908C1.34799 12.516 1.04399 12.056 0.827991 11.528C0.619991 10.992 0.515991 10.404 0.515991 9.76397C0.515991 9.13997 0.627991 8.56397 0.851991 8.03597C1.07599 7.50797 1.38399 7.05197 1.77599 6.66797C2.17599 6.27597 2.64399 5.97197 3.17999 5.75597C3.72399 5.53997 4.31599 5.43197 4.95599 5.43197C5.35599 5.43197 5.74799 5.48397 6.13199 5.58797C6.51599 5.69197 6.87199 5.84797 7.19999 6.05597C7.53599 6.25597 7.82399 6.49597 8.06399 6.77597L6.81599 8.20397C6.64799 8.02797 6.46799 7.87597 6.27599 7.74797C6.09199 7.61197 5.88799 7.50797 5.66399 7.43597C5.43999 7.36397 5.19999 7.32797 4.94399 7.32797C4.62399 7.32797 4.31999 7.38797 4.03199 7.50797C3.75199 7.61997 3.50399 7.78397 3.28799 7.99997C3.07999 8.20797 2.91599 8.46397 2.79599 8.76797C2.67599 9.07197 2.61599 9.41197 2.61599 9.78797C2.61599 10.156 2.67599 10.492 2.79599 10.796C2.91599 11.092 3.08399 11.348 3.29999 11.564C3.51599 11.78 3.77599 11.944 4.07999 12.056C4.39199 12.168 4.73599 12.224 5.11199 12.224C5.36799 12.224 5.61199 12.188 5.84399 12.116C6.07599 12.044 6.28799 11.948 6.47999 11.828C6.67999 11.7 6.85599 11.556 7.00799 11.396L7.99199 12.956C7.79199 13.18 7.52399 13.38 7.18799 13.556C6.85999 13.732 6.49199 13.872 6.08399 13.976C5.68399 14.072 5.27999 14.12 4.87199 14.12Z" fill="white"/>
<path d="M14.596 14V5.59997H16.636V14H14.596ZM9.38802 14V5.59997H11.428V14H9.38802ZM10.18 10.724L10.192 8.89997H15.676V10.724H10.18Z" fill="white"/>
<path d="M18.5716 14V12.284H19.9876V7.31597H18.5716V5.59997H23.4556V7.31597H22.0276V12.284H23.4556V14H18.5716ZM20.7076 5.04797C20.6516 4.97597 20.5996 4.89597 20.5516 4.80797C20.5036 4.71997 20.4796 4.62797 20.4796 4.53197C20.4796 4.43597 20.5036 4.34397 20.5516 4.25597C20.6076 4.15997 20.7076 4.05997 20.8516 3.95597C20.9636 3.88397 21.0516 3.81997 21.1156 3.76397C21.1796 3.70797 21.2116 3.63997 21.2116 3.55997C21.2116 3.48797 21.1756 3.43597 21.1036 3.40397C21.0396 3.36397 20.9556 3.34397 20.8516 3.34397C20.6916 3.34397 20.5236 3.36797 20.3476 3.41597C20.1716 3.46397 19.9956 3.52797 19.8196 3.60797L19.5436 2.58797C19.7196 2.49197 19.9356 2.41197 20.1916 2.34797C20.4556 2.27597 20.7236 2.23997 20.9956 2.23997C21.4516 2.23997 21.8116 2.33997 22.0756 2.53997C22.3476 2.73197 22.4836 2.99197 22.4836 3.31997C22.4836 3.58397 22.4276 3.78397 22.3156 3.91997C22.2036 4.05597 22.0836 4.16397 21.9556 4.24397C21.8276 4.32397 21.7196 4.39997 21.6316 4.47197C21.5516 4.54397 21.5116 4.61997 21.5116 4.69997C21.5116 4.73197 21.5156 4.75997 21.5236 4.78397C21.5316 4.80797 21.5396 4.83597 21.5476 4.86797L20.7076 5.04797Z" fill="white"/>
<path d="M32.0236 14.12C31.4716 14.12 30.9716 14.056 30.5236 13.928C30.0836 13.792 29.6916 13.6 29.3476 13.352C29.0036 13.096 28.6956 12.796 28.4236 12.452L29.6596 11.048C30.0596 11.584 30.4596 11.944 30.8596 12.128C31.2676 12.312 31.6876 12.404 32.1196 12.404C32.3356 12.404 32.5316 12.376 32.7076 12.32C32.8836 12.264 33.0196 12.184 33.1156 12.08C33.2116 11.968 33.2596 11.832 33.2596 11.672C33.2596 11.552 33.2276 11.444 33.1636 11.348C33.1076 11.252 33.0276 11.168 32.9236 11.096C32.8196 11.024 32.6956 10.96 32.5516 10.904C32.4076 10.84 32.2556 10.788 32.0956 10.748C31.9356 10.7 31.7716 10.66 31.6036 10.628C31.1396 10.524 30.7356 10.396 30.3916 10.244C30.0476 10.092 29.7596 9.90797 29.5276 9.69197C29.3036 9.46797 29.1356 9.21597 29.0236 8.93597C28.9116 8.64797 28.8556 8.32797 28.8556 7.97597C28.8556 7.59997 28.9396 7.25597 29.1076 6.94397C29.2836 6.62397 29.5156 6.35197 29.8036 6.12797C30.0996 5.89597 30.4396 5.71997 30.8236 5.59997C31.2076 5.47197 31.6076 5.40797 32.0236 5.40797C32.5756 5.40797 33.0476 5.46797 33.4396 5.58797C33.8396 5.69997 34.1796 5.86397 34.4596 6.07997C34.7476 6.29597 34.9916 6.55597 35.1916 6.85997L33.9316 8.07197C33.7636 7.86397 33.5796 7.69197 33.3796 7.55597C33.1876 7.41997 32.9796 7.31597 32.7556 7.24397C32.5396 7.17197 32.3156 7.13597 32.0836 7.13597C31.8436 7.13597 31.6356 7.16797 31.4596 7.23197C31.2916 7.28797 31.1596 7.37197 31.0636 7.48397C30.9676 7.58797 30.9196 7.71597 30.9196 7.86797C30.9196 8.00397 30.9596 8.11997 31.0396 8.21597C31.1196 8.31197 31.2276 8.39997 31.3636 8.47997C31.4996 8.55197 31.6556 8.61597 31.8316 8.67197C32.0076 8.71997 32.1916 8.75997 32.3836 8.79197C32.8236 8.87997 33.2196 8.99597 33.5716 9.13997C33.9316 9.28397 34.2396 9.45997 34.4956 9.66797C34.7596 9.87597 34.9596 10.124 35.0956 10.412C35.2396 10.692 35.3116 11.02 35.3116 11.396C35.3116 11.98 35.1676 12.476 34.8796 12.884C34.5996 13.284 34.2116 13.592 33.7156 13.808C33.2276 14.016 32.6636 14.12 32.0236 14.12Z" fill="white"/>
<path d="M40.6731 14.12C40.0331 14.12 39.4491 14.012 38.9211 13.796C38.3931 13.58 37.9331 13.276 37.5411 12.884C37.1491 12.492 36.8451 12.032 36.6291 11.504C36.4131 10.976 36.3051 10.396 36.3051 9.76397C36.3051 9.13197 36.4131 8.55197 36.6291 8.02397C36.8451 7.49597 37.1491 7.03597 37.5411 6.64397C37.9331 6.25197 38.3931 5.94797 38.9211 5.73197C39.4491 5.51597 40.0291 5.40797 40.6611 5.40797C41.2931 5.40797 41.8731 5.51597 42.4011 5.73197C42.9291 5.94797 43.3891 6.25197 43.7811 6.64397C44.1731 7.03597 44.4731 7.49597 44.6811 8.02397C44.8971 8.55197 45.0051 9.13197 45.0051 9.76397C45.0051 10.388 44.8971 10.968 44.6811 11.504C44.4731 12.032 44.1731 12.492 43.7811 12.884C43.3891 13.276 42.9291 13.58 42.4011 13.796C41.8731 14.012 41.2971 14.12 40.6731 14.12ZM40.6611 12.2C40.9891 12.2 41.2891 12.14 41.5611 12.02C41.8411 11.9 42.0811 11.732 42.2811 11.516C42.4891 11.292 42.6491 11.032 42.7611 10.736C42.8731 10.44 42.9291 10.116 42.9291 9.76397C42.9291 9.41197 42.8731 9.08797 42.7611 8.79197C42.6491 8.49597 42.4891 8.23997 42.2811 8.02397C42.0811 7.79997 41.8411 7.62797 41.5611 7.50797C41.2891 7.38797 40.9891 7.32797 40.6611 7.32797C40.3331 7.32797 40.0291 7.38797 39.7491 7.50797C39.4771 7.62797 39.2371 7.79997 39.0291 8.02397C38.8211 8.23997 38.6611 8.49597 38.5491 8.79197C38.4451 9.08797 38.3931 9.41197 38.3931 9.76397C38.3931 10.116 38.4451 10.444 38.5491 10.748C38.6611 11.044 38.8211 11.3 39.0291 11.516C39.2371 11.732 39.4771 11.9 39.7491 12.02C40.0291 12.14 40.3331 12.2 40.6611 12.2ZM39.0531 4.99997L38.5131 4.33997L40.1211 3.11597H41.2011L42.8091 4.33997L42.2691 4.99997L40.4811 4.21997H40.8411L39.0531 4.99997ZM42.8211 3.43997L42.0531 2.91197L43.1931 0.94397L44.3931 1.79597L42.8211 3.43997Z" fill="white"/>
<path d="M49.6136 1.45452L53.3636 7.50565H53.4773L57.2273 1.45452H59.3011L54.7273 8.72724L59.3011 16H57.2273L53.4773 10.0625H53.3636L49.6136 16H47.5398L52.2273 8.72724L47.5398 1.45452H49.6136Z" fill="#B3C7FF"/>
<path d="M73.1275 1.45452V16H71.4229L63.4968 4.57952H63.3548V16H61.5934V1.45452H63.2979L71.2525 12.9034H71.3945V1.45452H73.1275Z" fill="#B3C7FF"/>
</svg>
