<svg width="74" height="16" viewBox="0 0 74 16" fill="none" xmlns="http://www.w3.org/2000/svg">
<path d="M4.87199 14.12C4.23999 14.12 3.65599 14.016 3.11999 13.808C2.59199 13.592 2.13199 13.292 1.73999 12.908C1.34799 12.516 1.04399 12.056 0.827991 11.528C0.619991 10.992 0.515991 10.404 0.515991 9.764C0.515991 9.14 0.627991 8.564 0.851991 8.036C1.07599 7.508 1.38399 7.052 1.77599 6.668C2.17599 6.276 2.64399 5.972 3.17999 5.756C3.72399 5.54 4.31599 5.432 4.95599 5.432C5.35599 5.432 5.74799 5.484 6.13199 5.588C6.51599 5.692 6.87199 5.848 7.19999 6.056C7.53599 6.256 7.82399 6.496 8.06399 6.776L6.81599 8.204C6.64799 8.028 6.46799 7.876 6.27599 7.748C6.09199 7.612 5.88799 7.508 5.66399 7.436C5.43999 7.364 5.19999 7.328 4.94399 7.328C4.62399 7.328 4.31999 7.388 4.03199 7.508C3.75199 7.62 3.50399 7.784 3.28799 8C3.07999 8.208 2.91599 8.464 2.79599 8.768C2.67599 9.072 2.61599 9.412 2.61599 9.788C2.61599 10.156 2.67599 10.492 2.79599 10.796C2.91599 11.092 3.08399 11.348 3.29999 11.564C3.51599 11.78 3.77599 11.944 4.07999 12.056C4.39199 12.168 4.73599 12.224 5.11199 12.224C5.36799 12.224 5.61199 12.188 5.84399 12.116C6.07599 12.044 6.28799 11.948 6.47999 11.828C6.67999 11.7 6.85599 11.556 7.00799 11.396L7.99199 12.956C7.79199 13.18 7.52399 13.38 7.18799 13.556C6.85999 13.732 6.49199 13.872 6.08399 13.976C5.68399 14.072 5.27999 14.12 4.87199 14.12Z" fill="black"/>
<path d="M14.596 14V5.6H16.636V14H14.596ZM9.38802 14V5.6H11.428V14H9.38802ZM10.18 10.724L10.192 8.9H15.676V10.724H10.18Z" fill="black"/>
<path d="M18.5716 14V12.284H19.9876V7.316H18.5716V5.6H23.4556V7.316H22.0276V12.284H23.4556V14H18.5716ZM20.7076 5.048C20.6516 4.976 20.5996 4.896 20.5516 4.808C20.5036 4.72 20.4796 4.628 20.4796 4.532C20.4796 4.436 20.5036 4.344 20.5516 4.256C20.6076 4.16 20.7076 4.06 20.8516 3.956C20.9636 3.884 21.0516 3.82 21.1156 3.764C21.1796 3.708 21.2116 3.64 21.2116 3.56C21.2116 3.488 21.1756 3.436 21.1036 3.404C21.0396 3.364 20.9556 3.344 20.8516 3.344C20.6916 3.344 20.5236 3.368 20.3476 3.416C20.1716 3.464 19.9956 3.528 19.8196 3.608L19.5436 2.588C19.7196 2.492 19.9356 2.412 20.1916 2.348C20.4556 2.276 20.7236 2.24 20.9956 2.24C21.4516 2.24 21.8116 2.34 22.0756 2.54C22.3476 2.732 22.4836 2.992 22.4836 3.32C22.4836 3.584 22.4276 3.784 22.3156 3.92C22.2036 4.056 22.0836 4.164 21.9556 4.244C21.8276 4.324 21.7196 4.4 21.6316 4.472C21.5516 4.544 21.5116 4.62 21.5116 4.7C21.5116 4.732 21.5156 4.76 21.5236 4.784C21.5316 4.808 21.5396 4.836 21.5476 4.868L20.7076 5.048Z" fill="black"/>
<path d="M32.0236 14.12C31.4716 14.12 30.9716 14.056 30.5236 13.928C30.0836 13.792 29.6916 13.6 29.3476 13.352C29.0036 13.096 28.6956 12.796 28.4236 12.452L29.6596 11.048C30.0596 11.584 30.4596 11.944 30.8596 12.128C31.2676 12.312 31.6876 12.404 32.1196 12.404C32.3356 12.404 32.5316 12.376 32.7076 12.32C32.8836 12.264 33.0196 12.184 33.1156 12.08C33.2116 11.968 33.2596 11.832 33.2596 11.672C33.2596 11.552 33.2276 11.444 33.1636 11.348C33.1076 11.252 33.0276 11.168 32.9236 11.096C32.8196 11.024 32.6956 10.96 32.5516 10.904C32.4076 10.84 32.2556 10.788 32.0956 10.748C31.9356 10.7 31.7716 10.66 31.6036 10.628C31.1396 10.524 30.7356 10.396 30.3916 10.244C30.0476 10.092 29.7596 9.908 29.5276 9.692C29.3036 9.468 29.1356 9.216 29.0236 8.936C28.9116 8.648 28.8556 8.328 28.8556 7.976C28.8556 7.6 28.9396 7.256 29.1076 6.944C29.2836 6.624 29.5156 6.352 29.8036 6.128C30.0996 5.896 30.4396 5.72 30.8236 5.6C31.2076 5.472 31.6076 5.408 32.0236 5.408C32.5756 5.408 33.0476 5.468 33.4396 5.588C33.8396 5.7 34.1796 5.864 34.4596 6.08C34.7476 6.296 34.9916 6.556 35.1916 6.86L33.9316 8.072C33.7636 7.864 33.5796 7.692 33.3796 7.556C33.1876 7.42 32.9796 7.316 32.7556 7.244C32.5396 7.172 32.3156 7.136 32.0836 7.136C31.8436 7.136 31.6356 7.168 31.4596 7.232C31.2916 7.288 31.1596 7.372 31.0636 7.484C30.9676 7.588 30.9196 7.716 30.9196 7.868C30.9196 8.004 30.9596 8.12 31.0396 8.216C31.1196 8.312 31.2276 8.4 31.3636 8.48C31.4996 8.552 31.6556 8.616 31.8316 8.672C32.0076 8.72 32.1916 8.76 32.3836 8.792C32.8236 8.88 33.2196 8.996 33.5716 9.14C33.9316 9.284 34.2396 9.46 34.4956 9.668C34.7596 9.876 34.9596 10.124 35.0956 10.412C35.2396 10.692 35.3116 11.02 35.3116 11.396C35.3116 11.98 35.1676 12.476 34.8796 12.884C34.5996 13.284 34.2116 13.592 33.7156 13.808C33.2276 14.016 32.6636 14.12 32.0236 14.12Z" fill="black"/>
<path d="M40.6731 14.12C40.0331 14.12 39.4491 14.012 38.9211 13.796C38.3931 13.58 37.9331 13.276 37.5411 12.884C37.1491 12.492 36.8451 12.032 36.6291 11.504C36.4131 10.976 36.3051 10.396 36.3051 9.764C36.3051 9.132 36.4131 8.552 36.6291 8.024C36.8451 7.496 37.1491 7.036 37.5411 6.644C37.9331 6.252 38.3931 5.948 38.9211 5.732C39.4491 5.516 40.0291 5.408 40.6611 5.408C41.2931 5.408 41.8731 5.516 42.4011 5.732C42.9291 5.948 43.3891 6.252 43.7811 6.644C44.1731 7.036 44.4731 7.496 44.6811 8.024C44.8971 8.552 45.0051 9.132 45.0051 9.764C45.0051 10.388 44.8971 10.968 44.6811 11.504C44.4731 12.032 44.1731 12.492 43.7811 12.884C43.3891 13.276 42.9291 13.58 42.4011 13.796C41.8731 14.012 41.2971 14.12 40.6731 14.12ZM40.6611 12.2C40.9891 12.2 41.2891 12.14 41.5611 12.02C41.8411 11.9 42.0811 11.732 42.2811 11.516C42.4891 11.292 42.6491 11.032 42.7611 10.736C42.8731 10.44 42.9291 10.116 42.9291 9.764C42.9291 9.412 42.8731 9.088 42.7611 8.792C42.6491 8.496 42.4891 8.24 42.2811 8.024C42.0811 7.8 41.8411 7.628 41.5611 7.508C41.2891 7.388 40.9891 7.328 40.6611 7.328C40.3331 7.328 40.0291 7.388 39.7491 7.508C39.4771 7.628 39.2371 7.8 39.0291 8.024C38.8211 8.24 38.6611 8.496 38.5491 8.792C38.4451 9.088 38.3931 9.412 38.3931 9.764C38.3931 10.116 38.4451 10.444 38.5491 10.748C38.6611 11.044 38.8211 11.3 39.0291 11.516C39.2371 11.732 39.4771 11.9 39.7491 12.02C40.0291 12.14 40.3331 12.2 40.6611 12.2ZM39.0531 5L38.5131 4.34L40.1211 3.116H41.2011L42.8091 4.34L42.2691 5L40.4811 4.22H40.8411L39.0531 5ZM42.8211 3.44L42.0531 2.912L43.1931 0.944L44.3931 1.796L42.8211 3.44Z" fill="black"/>
<path d="M49.6136 1.45455L53.3636 7.50568H53.4773L57.2273 1.45455H59.3011L54.7273 8.72727L59.3011 16H57.2273L53.4773 10.0625H53.3636L49.6136 16H47.5398L52.2273 8.72727L47.5398 1.45455H49.6136Z" fill="#3E4FF5"/>
<path d="M73.1275 1.45455V16H71.4229L63.4968 4.57955H63.3548V16H61.5934V1.45455H63.2979L71.2525 12.9034H71.3945V1.45455H73.1275Z" fill="#3E4FF5"/>
</svg>
